<svg xmlns="http://www.w3.org/2000/svg" id="Layer_1" width="275px" height="119px" viewBox="0 0 275 119"><style>.st0{fill:#a21b14}.st1{fill:#c0392b}.st3{fill:#333}</style><g id="Polygon-1-Copy-2-_x2B_-Polygon-1-Copy-Copy" transform="translate(-.11 69.51)"><path id="Polygon-1-Copy-2" d="M47.9 6.4l39.2 6.3c1.6.3 2.9.9 2.9 1.4v12.6c0 .5-1.3 1.1-2.9 1.4l-39.2 6.3c-1.6.3-4.2.3-5.8 0L2.9 28.1c-1.6-.3-2.9-.9-2.9-1.4V14.1c0-.5 1.3-1.1 2.9-1.4l39.2-6.3c1.6-.3 4.2-.3 5.8 0z" class="st0"/><path id="Polygon-1" d="M47.9.2l39.2 6.3c1.6.3 2.9.9 2.9 1.4v12.6c0 .5-1.3 1.1-2.9 1.4l-39.2 6.3c-1.6.3-4.2.3-5.8 0L2.9 21.9C1.3 21.6 0 21 0 20.5V7.9c0-.5 1.3-1.1 2.9-1.4L42.1.2c1.6-.2 4.2-.2 5.8 0z" class="st1"/></g><g id="Polygon-1-Copy-2-_x2B_-Polygon-1-Copy-Copy-Copy" transform="translate(-.44 43.47)"><path id="Polygon-1-Copy-2_1_" d="M47.9 6.4l39.2 6.3c1.6.3 2.9.9 2.9 1.4v12.6c0 .5-1.3 1.1-2.9 1.4l-39.2 6.3c-1.6.3-4.2.3-5.8 0L2.9 28.1c-1.6-.3-2.9-.9-2.9-1.4V14.1c0-.5 1.3-1.1 2.9-1.4l39.2-6.3c1.6-.3 4.2-.3 5.8 0z" class="st0"/><path id="Polygon-1_1_" d="M47.9.2l39.2 6.3c1.6.3 2.9.9 2.9 1.4v12.6c0 .5-1.3 1.1-2.9 1.4l-39.2 6.3c-1.6.3-4.2.3-5.8 0L2.9 21.9C1.3 21.6 0 21 0 20.5V7.9c0-.5 1.3-1.1 2.9-1.4L42.1.2c1.6-.2 4.2-.2 5.8 0z" class="st1"/></g><g id="Polygon-1-Copy-2-_x2B_-Polygon-1-Copy-Copy-Copy-Copy" transform="translate(-.44 18.68)"><path id="Polygon-1-Copy-2_2_" d="M47.9 6.4l39.2 6.3c1.6.3 2.9.9 2.9 1.4v12.6c0 .5-1.3 1.1-2.9 1.4l-39.2 6.3c-1.6.3-4.2.3-5.8 0L2.9 28.1c-1.6-.3-2.9-.9-2.9-1.4V14.1c0-.5 1.3-1.1 2.9-1.4l39.2-6.3c1.6-.3 4.2-.3 5.8 0z" class="st0"/><path id="Polygon-1_2_" d="M47.9.2l39.2 6.3c1.6.3 2.9.9 2.9 1.4v12.6c0 .5-1.3 1.1-2.9 1.4l-39.2 6.3c-1.6.3-4.2.3-5.8 0L2.9 21.9C1.3 21.6 0 21 0 20.5V7.9c0-.5 1.3-1.1 2.9-1.4L42.1.2c1.6-.2 4.2-.2 5.8 0z" class="st1"/></g><path d="M108.9 40.4v-8.2h8.2v8.2h-8.2zm0 48.8V48.6h8.2v40.6h-8.2zM123.1 62.2c0-1.7.1-3.2.3-4.6a10.74 10.74 0 0 1 5.3-7.9c1.8-1.1 4-1.6 6.5-1.6 2.6 0 4.7.5 6.5 1.6a10.74 10.74 0 0 1 5.3 7.9c.2 1.4.3 2.9.3 4.6v13.4c0 1.7-.1 3.2-.3 4.6a10.74 10.74 0 0 1-5.3 7.9c-1.8 1.1-4 1.6-6.5 1.6-2.6 0-4.7-.5-6.5-1.6a10.74 10.74 0 0 1-5.3-7.9c-.2-1.4-.3-2.9-.3-4.6V62.2zm8.1 14.7c0 1.5.4 2.7 1.1 3.5.7.8 1.7 1.2 2.9 1.2s2.2-.4 2.9-1.2c.7-.8 1.1-1.9 1.1-3.5v-16c0-1.5-.4-2.7-1.1-3.5a3.7 3.7 0 0 0-2.9-1.2c-1.2 0-2.2.4-2.9 1.2-.7.8-1.1 1.9-1.1 3.5v16zM153.4 89.2V48.6h8.2v4.3c1.7-1.5 3.3-2.7 4.9-3.5 1.6-.9 3.6-1.3 5.9-1.3v8.6c-.8-.3-1.6-.5-2.5-.5-.9 0-1.8.1-2.8.4a8.17 8.17 0 0 0-4.8 4.2c-.5 1.1-.8 2.5-.8 4.2v24.1h-8.1zM199.2 72H183v5.5c0 1.3.4 2.3 1.1 3 .7.7 1.7 1 2.9 1 1.5 0 2.6-.5 3.1-1.4.5-.9.8-1.8.9-2.7h8.2c0 3.6-1.1 6.5-3.3 8.6-1.1 1.1-2.3 2-3.8 2.6-1.5.6-3.2 1-5 1-2.6 0-4.7-.5-6.5-1.6a10.74 10.74 0 0 1-5.3-7.9c-.2-1.4-.3-2.9-.3-4.6V62.2c0-1.7.1-3.2.3-4.6a10.74 10.74 0 0 1 5.3-7.9c1.8-1.1 4-1.6 6.5-1.6 1.9 0 3.6.3 5.1 1 1.5.6 2.8 1.5 3.9 2.6 2.1 2.4 3.2 5.4 3.2 9V72zm-16.1-6.4h8V61c0-1.5-.4-2.7-1.1-3.5a3.7 3.7 0 0 0-2.9-1.2c-1.2 0-2.2.4-2.9 1.2-.7.8-1.1 1.9-1.1 3.5v4.6zM221.5 89.2v-3.7c-.5.6-1 1.1-1.5 1.6s-1 .9-1.6 1.3c-.6.4-1.3.7-2 .9-.7.2-1.6.3-2.6.3-3.4 0-5.8-1.3-7.1-3.8-.5-.9-.8-2-1-3.4-.2-1.3-.3-3.1-.3-5.4V61.7c0-2.9.1-5.1.2-6.5.3-2.7 1.6-4.7 3.8-6 1-.7 2.5-1 4.6-1a8.6 8.6 0 0 1 7.5 4.2h.2V32.2h8.2v57h-8.4zM213.4 76c0 1.7.3 3 1 4 .6 1 1.7 1.5 3 1.5 1.2 0 2.2-.5 3-1.4.7-.9 1.1-2.1 1.1-3.6V60.7c0-1.3-.4-2.3-1.2-3.2-.8-.8-1.7-1.2-2.9-1.2-1.5 0-2.6.5-3.2 1.4-.6 1-.8 2.1-.8 3.4V76zM236.4 40.4v-8.2h8.2v8.2h-8.2zm0 48.8V48.6h8.2v40.6h-8.2zM266 60c-.1-1.4-.5-2.4-1.3-3.1-.8-.7-1.8-1-2.8-1-1.3 0-2.3.4-3 1.2-.7.8-1 1.8-1 2.8 0 .7.2 1.5.6 2.2s1.3 1.4 2.9 2l4.8 1.9c3 1.2 5.1 2.8 6.3 4.8a13.5 13.5 0 0 1 .8 11.4c-.6 1.5-1.5 2.8-2.5 3.9-1.1 1.1-2.3 2-3.8 2.6-1.5.6-3.1 1-4.9 1-3.3 0-6.1-1-8.3-3.1-1.1-1-2-2.3-2.7-3.8-.7-1.5-1.1-3.3-1.1-5.3h7.7c.2 1.1.5 2.2 1.2 3.1.6 1 1.7 1.4 3.2 1.4 1.2 0 2.2-.4 3.2-1.2.9-.8 1.4-1.9 1.4-3.2 0-1.1-.3-2.1-.9-2.9-.6-.8-1.7-1.5-3.2-2.1l-3.9-1.4c-2.6-1-4.6-2.4-6-4.3-1.5-1.9-2.2-4.2-2.2-6.9 0-1.7.3-3.3 1-4.8.6-1.5 1.5-2.7 2.6-3.8 1.1-1.1 2.3-1.9 3.8-2.4 1.4-.6 3-.8 4.6-.8 1.7 0 3.2.3 4.6.9 1.4.6 2.6 1.4 3.6 2.5s1.8 2.3 2.4 3.8c.6 1.5.9 3 .9 4.7h-8z" class="st3"/></svg>