<?xml version="1.0" encoding="UTF-8" standalone="no"?>
<svg width="275px" height="119px" viewBox="0 0 275 119" version="1.1" xmlns="http://www.w3.org/2000/svg" xmlns:xlink="http://www.w3.org/1999/xlink" xmlns:sketch="http://www.bohemiancoding.com/sketch/ns">
    <!-- Generator: Sketch 3.3.2 (12043) - http://www.bohemiancoding.com/sketch -->
    <title>logo@1x</title>
    <desc>Created with Sketch.</desc>
    <defs></defs>
    <g id="Page-1" stroke="none" stroke-width="1" fill="none" fill-rule="evenodd" sketch:type="MSPage">
        <g id="logo" sketch:type="MSArtboardGroup">
            <g id="Polygon-1-Copy-2-+-Polygon-1-Copy-Copy" sketch:type="MSLayerGroup" transform="translate(-0.111610, 69.512087)">
                <path d="M47.8974988,6.40307546 L87.0877869,12.6952036 C88.6839565,12.9514739 89.9779076,13.5758197 89.9779076,14.0900241 L89.9779076,26.6687493 C89.9779076,27.1828171 88.6865302,27.8068863 87.0877869,28.0635697 L47.8974988,34.3556979 C46.3013291,34.6119681 43.7160007,34.6123813 42.1172573,34.3556979 L2.92696919,28.0635697 C1.33079959,27.8072995 0.0368484679,27.1829537 0.0368484679,26.6687493 L0.0368484679,14.0900241 C0.0368484679,13.5759562 1.32822583,12.9518871 2.92696919,12.6952036 L42.1172573,6.40307546 C43.7134269,6.14680524 46.2987554,6.14639201 47.8974988,6.40307546 Z" id="Polygon-1-Copy-2" fill="#A21B14" sketch:type="MSShapeGroup"></path>
                <path d="M47.8974988,0.239425508 L87.0877869,6.5315537 C88.6839565,6.78782392 89.9779076,7.41216973 89.9779076,7.92637411 L89.9779076,20.5050993 C89.9779076,21.0191672 88.6865302,21.6432363 87.0877869,21.8999198 L47.8974988,28.192048 C46.3013291,28.4483182 43.7160007,28.4487314 42.1172573,28.192048 L2.92696919,21.8999198 C1.33079959,21.6436495 0.0368484679,21.0193037 0.0368484679,20.5050993 L0.0368484679,7.92637411 C0.0368484679,7.41230629 1.32822583,6.78823714 2.92696919,6.5315537 L42.1172573,0.239425508 C43.7134269,-0.0168447121 46.2987554,-0.0172579378 47.8974988,0.239425508 Z" id="Polygon-1" fill="#C0392B" sketch:type="MSShapeGroup"></path>
            </g>
            <g id="Polygon-1-Copy-2-+-Polygon-1-Copy-Copy-Copy" sketch:type="MSLayerGroup" transform="translate(-0.436000, 43.471603)">
                <path d="M47.8974988,6.40307546 L87.0877869,12.6952036 C88.6839565,12.9514739 89.9779076,13.5758197 89.9779076,14.0900241 L89.9779076,26.6687493 C89.9779076,27.1828171 88.6865302,27.8068863 87.0877869,28.0635697 L47.8974988,34.3556979 C46.3013291,34.6119681 43.7160007,34.6123813 42.1172573,34.3556979 L2.92696919,28.0635697 C1.33079959,27.8072995 0.0368484679,27.1829537 0.0368484679,26.6687493 L0.0368484679,14.0900241 C0.0368484679,13.5759562 1.32822583,12.9518871 2.92696919,12.6952036 L42.1172573,6.40307546 C43.7134269,6.14680524 46.2987554,6.14639201 47.8974988,6.40307546 Z" id="Polygon-1-Copy-2" fill="#A21B14" sketch:type="MSShapeGroup"></path>
                <path d="M47.8974988,0.239425508 L87.0877869,6.5315537 C88.6839565,6.78782392 89.9779076,7.41216973 89.9779076,7.92637411 L89.9779076,20.5050993 C89.9779076,21.0191672 88.6865302,21.6432363 87.0877869,21.8999198 L47.8974988,28.192048 C46.3013291,28.4483182 43.7160007,28.4487314 42.1172573,28.192048 L2.92696919,21.8999198 C1.33079959,21.6436495 0.0368484679,21.0193037 0.0368484679,20.5050993 L0.0368484679,7.92637411 C0.0368484679,7.41230629 1.32822583,6.78823714 2.92696919,6.5315537 L42.1172573,0.239425508 C43.7134269,-0.0168447121 46.2987554,-0.0172579378 47.8974988,0.239425508 Z" id="Polygon-1" fill="#C0392B" sketch:type="MSShapeGroup"></path>
            </g>
            <g id="Polygon-1-Copy-2-+-Polygon-1-Copy-Copy-Copy-Copy" sketch:type="MSLayerGroup" transform="translate(-0.436000, 18.684150)">
                <path d="M47.8974988,6.40307546 L87.0877869,12.6952036 C88.6839565,12.9514739 89.9779076,13.5758197 89.9779076,14.0900241 L89.9779076,26.6687493 C89.9779076,27.1828171 88.6865302,27.8068863 87.0877869,28.0635697 L47.8974988,34.3556979 C46.3013291,34.6119681 43.7160007,34.6123813 42.1172573,34.3556979 L2.92696919,28.0635697 C1.33079959,27.8072995 0.0368484679,27.1829537 0.0368484679,26.6687493 L0.0368484679,14.0900241 C0.0368484679,13.5759562 1.32822583,12.9518871 2.92696919,12.6952036 L42.1172573,6.40307546 C43.7134269,6.14680524 46.2987554,6.14639201 47.8974988,6.40307546 Z" id="Polygon-1-Copy-2" fill="#A21B14" sketch:type="MSShapeGroup"></path>
                <path d="M47.8974988,0.239425508 L87.0877869,6.5315537 C88.6839565,6.78782392 89.9779076,7.41216973 89.9779076,7.92637411 L89.9779076,20.5050993 C89.9779076,21.0191672 88.6865302,21.6432363 87.0877869,21.8999198 L47.8974988,28.192048 C46.3013291,28.4483182 43.7160007,28.4487314 42.1172573,28.192048 L2.92696919,21.8999198 C1.33079959,21.6436495 0.0368484679,21.0193037 0.0368484679,20.5050993 L0.0368484679,7.92637411 C0.0368484679,7.41230629 1.32822583,6.78823714 2.92696919,6.5315537 L42.1172573,0.239425508 C43.7134269,-0.0168447121 46.2987554,-0.0172579378 47.8974988,0.239425508 Z" id="Polygon-1" fill="#C0392B" sketch:type="MSShapeGroup"></path>
            </g>
            <text id="ioredis" sketch:type="MSTextLayer" font-family="DIN Condensed" font-size="80" font-weight="bold" fill="#333333">
                <tspan x="105.564" y="89.1841496">ioredis</tspan>
            </text>
        </g>
    </g>
</svg>